<?xml version="1.0" standalone="no"?>
<!DOCTYPE svg PUBLIC "-//W3C//DTD SVG 20010904//EN"
 "http://www.w3.org/TR/2001/REC-SVG-20010904/DTD/svg10.dtd">
<svg version="1.0" xmlns="http://www.w3.org/2000/svg"
 width="225.000000pt" height="225.000000pt" viewBox="0 0 225.000000 225.000000"
 preserveAspectRatio="xMidYMid meet">
<metadata>
Created by potrace 1.16, written by Peter Selinger 2001-2019
</metadata>
<g transform="translate(0.000000,225.000000) scale(0.100000,-0.100000)"
fill="#000000" stroke="none">
<path d="M480 2100 l0 -150 50 0 50 0 0 50 0 50 45 0 45 0 0 -50 0 -50 50 0
50 0 0 150 0 150 -50 0 -50 0 0 -50 0 -50 -45 0 -45 0 0 50 0 50 -50 0 -50 0
0 -150z"/>
<path d="M820 2201 l0 -50 43 -3 42 -3 0 -98 0 -97 53 0 52 0 0 100 0 100 45
0 45 0 0 50 0 50 -140 0 -140 0 0 -49z"/>
<path d="M1140 2100 l0 -150 50 0 50 0 0 72 0 73 36 -53 36 -54 34 54 33 53 1
-72 0 -73 50 0 50 0 0 150 0 150 -53 0 -53 0 -29 -50 c-16 -27 -32 -50 -35
-50 -3 0 -18 23 -33 50 l-28 50 -55 0 -54 0 0 -150z"/>
<path d="M1530 2100 l0 -150 125 0 125 0 0 50 0 50 -75 0 -75 0 0 100 0 100
-50 0 -50 0 0 -150z"/>
<path d="M335 1760 c3 -25 15 -151 26 -280 11 -129 26 -300 33 -380 7 -80 28
-319 47 -531 l34 -386 325 -90 c315 -87 326 -90 370 -77 25 7 137 38 250 69
113 31 239 66 280 79 l75 22 32 364 c18 201 39 442 48 535 8 94 24 274 35 400
11 127 22 250 25 275 l6 45 -796 0 -796 0 6 -45z m1290 -347 c-3 -38 -8 -85
-11 -105 l-6 -38 -380 0 -381 0 7 -61 c3 -34 6 -77 6 -95 l0 -34 366 0 367 0
-6 -77 c-14 -174 -48 -547 -50 -549 -1 -1 -94 -27 -207 -58 l-205 -55 -205 56
c-113 31 -206 57 -207 58 -5 2 -28 316 -24 320 2 3 48 5 102 5 l98 0 5 -43 c3
-23 7 -60 8 -82 l3 -39 105 -29 105 -28 112 27 c129 32 117 15 129 187 l6 97
-344 0 -344 0 -23 263 c-12 144 -25 281 -28 305 l-6 42 507 0 508 0 -7 -67z"/>
</g>
</svg>
